<mxfile host="app.diagrams.net" agent="Mozilla/5.0 (Windows NT 10.0; Win64; x64) AppleWebKit/537.36 (KHTML, like Gecko) Chrome/135.0.0.0 Safari/537.36" version="26.2.13">
  <diagram name="Page-1" id="eVHNWQ0-pRpKlbynzxpw">
    <mxGraphModel dx="1190" dy="626" grid="1" gridSize="10" guides="1" tooltips="1" connect="1" arrows="1" fold="1" page="1" pageScale="1" pageWidth="850" pageHeight="1100" math="0" shadow="0">
      <root>
        <mxCell id="0" />
        <mxCell id="1" parent="0" />
        <mxCell id="8MSSbf0XBgLD7Upb6AGd-1" value="Computer chooses word from list&lt;div&gt;&lt;br&gt;&lt;/div&gt;&lt;div&gt;Fail count = 0&lt;/div&gt;" style="rounded=1;whiteSpace=wrap;html=1;" vertex="1" parent="1">
          <mxGeometry x="380" y="40" width="120" height="60" as="geometry" />
        </mxCell>
        <mxCell id="8MSSbf0XBgLD7Upb6AGd-2" value="Ask user for input" style="rounded=1;whiteSpace=wrap;html=1;" vertex="1" parent="1">
          <mxGeometry x="380" y="130" width="120" height="60" as="geometry" />
        </mxCell>
        <mxCell id="8MSSbf0XBgLD7Upb6AGd-3" value="Reveal letter" style="rounded=1;whiteSpace=wrap;html=1;" vertex="1" parent="1">
          <mxGeometry x="240" y="230" width="120" height="60" as="geometry" />
        </mxCell>
        <mxCell id="8MSSbf0XBgLD7Upb6AGd-4" value="Increment fail counter" style="rounded=1;whiteSpace=wrap;html=1;" vertex="1" parent="1">
          <mxGeometry x="520" y="230" width="120" height="60" as="geometry" />
        </mxCell>
        <mxCell id="8MSSbf0XBgLD7Upb6AGd-24" value="" style="edgeStyle=none;rounded=0;orthogonalLoop=1;jettySize=auto;html=1;" edge="1" parent="1" source="8MSSbf0XBgLD7Upb6AGd-8" target="8MSSbf0XBgLD7Upb6AGd-23">
          <mxGeometry relative="1" as="geometry" />
        </mxCell>
        <mxCell id="8MSSbf0XBgLD7Upb6AGd-8" value="Is word fully revealed?" style="rounded=1;whiteSpace=wrap;html=1;" vertex="1" parent="1">
          <mxGeometry x="240" y="340" width="120" height="60" as="geometry" />
        </mxCell>
        <mxCell id="8MSSbf0XBgLD7Upb6AGd-28" value="" style="edgeStyle=none;rounded=0;orthogonalLoop=1;jettySize=auto;html=1;" edge="1" parent="1" source="8MSSbf0XBgLD7Upb6AGd-9" target="8MSSbf0XBgLD7Upb6AGd-27">
          <mxGeometry relative="1" as="geometry" />
        </mxCell>
        <mxCell id="8MSSbf0XBgLD7Upb6AGd-9" value="Fail count at max?" style="rounded=1;whiteSpace=wrap;html=1;" vertex="1" parent="1">
          <mxGeometry x="520" y="340" width="120" height="60" as="geometry" />
        </mxCell>
        <mxCell id="8MSSbf0XBgLD7Upb6AGd-10" value="" style="endArrow=classic;html=1;rounded=0;exitX=0;exitY=1;exitDx=0;exitDy=0;entryX=1;entryY=0;entryDx=0;entryDy=0;" edge="1" parent="1" source="8MSSbf0XBgLD7Upb6AGd-2" target="8MSSbf0XBgLD7Upb6AGd-3">
          <mxGeometry width="50" height="50" relative="1" as="geometry">
            <mxPoint x="400" y="410" as="sourcePoint" />
            <mxPoint x="360" y="220" as="targetPoint" />
          </mxGeometry>
        </mxCell>
        <mxCell id="8MSSbf0XBgLD7Upb6AGd-11" value="" style="endArrow=classic;html=1;rounded=0;exitX=1;exitY=1;exitDx=0;exitDy=0;entryX=0;entryY=0;entryDx=0;entryDy=0;" edge="1" parent="1" source="8MSSbf0XBgLD7Upb6AGd-2" target="8MSSbf0XBgLD7Upb6AGd-4">
          <mxGeometry width="50" height="50" relative="1" as="geometry">
            <mxPoint x="606" y="190" as="sourcePoint" />
            <mxPoint x="560" y="232" as="targetPoint" />
          </mxGeometry>
        </mxCell>
        <mxCell id="8MSSbf0XBgLD7Upb6AGd-12" value="" style="endArrow=classic;html=1;rounded=0;entryX=0.5;entryY=0;entryDx=0;entryDy=0;exitX=0.5;exitY=1;exitDx=0;exitDy=0;" edge="1" parent="1" source="8MSSbf0XBgLD7Upb6AGd-1" target="8MSSbf0XBgLD7Upb6AGd-2">
          <mxGeometry width="50" height="50" relative="1" as="geometry">
            <mxPoint x="400" y="230" as="sourcePoint" />
            <mxPoint x="450" y="180" as="targetPoint" />
          </mxGeometry>
        </mxCell>
        <mxCell id="8MSSbf0XBgLD7Upb6AGd-14" value="&lt;span style=&quot;text-wrap-mode: wrap;&quot;&gt;CORRECT&lt;/span&gt;" style="text;html=1;align=center;verticalAlign=middle;resizable=0;points=[];autosize=1;strokeColor=none;fillColor=none;" vertex="1" parent="1">
          <mxGeometry x="260" y="190" width="80" height="30" as="geometry" />
        </mxCell>
        <mxCell id="8MSSbf0XBgLD7Upb6AGd-15" value="&lt;span style=&quot;text-wrap-mode: wrap;&quot;&gt;INCORRECT&lt;/span&gt;" style="text;html=1;align=center;verticalAlign=middle;resizable=0;points=[];autosize=1;strokeColor=none;fillColor=none;" vertex="1" parent="1">
          <mxGeometry x="535" y="190" width="90" height="30" as="geometry" />
        </mxCell>
        <mxCell id="8MSSbf0XBgLD7Upb6AGd-16" value="" style="endArrow=classic;html=1;rounded=0;entryX=0.5;entryY=0;entryDx=0;entryDy=0;exitX=0.5;exitY=1;exitDx=0;exitDy=0;" edge="1" parent="1" source="8MSSbf0XBgLD7Upb6AGd-4" target="8MSSbf0XBgLD7Upb6AGd-9">
          <mxGeometry width="50" height="50" relative="1" as="geometry">
            <mxPoint x="590" y="310" as="sourcePoint" />
            <mxPoint x="579.5799999999999" y="340.0000000000001" as="targetPoint" />
          </mxGeometry>
        </mxCell>
        <mxCell id="8MSSbf0XBgLD7Upb6AGd-20" value="" style="endArrow=classic;html=1;rounded=0;exitX=0;exitY=0.5;exitDx=0;exitDy=0;entryX=0;entryY=0.5;entryDx=0;entryDy=0;" edge="1" parent="1" source="8MSSbf0XBgLD7Upb6AGd-8" target="8MSSbf0XBgLD7Upb6AGd-2">
          <mxGeometry width="50" height="50" relative="1" as="geometry">
            <mxPoint x="530" y="330" as="sourcePoint" />
            <mxPoint x="580" y="280" as="targetPoint" />
            <Array as="points">
              <mxPoint x="150" y="370" />
              <mxPoint x="150" y="160" />
            </Array>
          </mxGeometry>
        </mxCell>
        <mxCell id="8MSSbf0XBgLD7Upb6AGd-21" value="" style="endArrow=classic;html=1;rounded=0;entryX=0.5;entryY=0;entryDx=0;entryDy=0;exitX=0.5;exitY=1;exitDx=0;exitDy=0;" edge="1" parent="1" source="8MSSbf0XBgLD7Upb6AGd-3" target="8MSSbf0XBgLD7Upb6AGd-8">
          <mxGeometry width="50" height="50" relative="1" as="geometry">
            <mxPoint x="380" y="300" as="sourcePoint" />
            <mxPoint x="380" y="350" as="targetPoint" />
          </mxGeometry>
        </mxCell>
        <mxCell id="8MSSbf0XBgLD7Upb6AGd-22" value="NO" style="text;html=1;align=center;verticalAlign=middle;resizable=0;points=[];autosize=1;strokeColor=none;fillColor=none;" vertex="1" parent="1">
          <mxGeometry x="200" y="340" width="40" height="30" as="geometry" />
        </mxCell>
        <mxCell id="8MSSbf0XBgLD7Upb6AGd-23" value="User wins" style="rounded=1;whiteSpace=wrap;html=1;" vertex="1" parent="1">
          <mxGeometry x="240" y="440" width="120" height="60" as="geometry" />
        </mxCell>
        <mxCell id="8MSSbf0XBgLD7Upb6AGd-25" value="" style="endArrow=classic;html=1;rounded=0;entryX=1;entryY=0.5;entryDx=0;entryDy=0;exitX=1;exitY=0.5;exitDx=0;exitDy=0;" edge="1" parent="1" source="8MSSbf0XBgLD7Upb6AGd-9" target="8MSSbf0XBgLD7Upb6AGd-2">
          <mxGeometry width="50" height="50" relative="1" as="geometry">
            <mxPoint x="480" y="340" as="sourcePoint" />
            <mxPoint x="530" y="290" as="targetPoint" />
            <Array as="points">
              <mxPoint x="720" y="370" />
              <mxPoint x="720" y="160" />
            </Array>
          </mxGeometry>
        </mxCell>
        <mxCell id="8MSSbf0XBgLD7Upb6AGd-26" value="NO" style="text;html=1;align=center;verticalAlign=middle;resizable=0;points=[];autosize=1;strokeColor=none;fillColor=none;" vertex="1" parent="1">
          <mxGeometry x="640" y="340" width="40" height="30" as="geometry" />
        </mxCell>
        <mxCell id="8MSSbf0XBgLD7Upb6AGd-27" value="User loses" style="whiteSpace=wrap;html=1;rounded=1;" vertex="1" parent="1">
          <mxGeometry x="520" y="440" width="120" height="60" as="geometry" />
        </mxCell>
        <mxCell id="8MSSbf0XBgLD7Upb6AGd-29" value="YES" style="text;html=1;align=center;verticalAlign=middle;resizable=0;points=[];autosize=1;strokeColor=none;fillColor=none;" vertex="1" parent="1">
          <mxGeometry x="575" y="410" width="50" height="30" as="geometry" />
        </mxCell>
        <mxCell id="8MSSbf0XBgLD7Upb6AGd-30" value="YES" style="text;html=1;align=center;verticalAlign=middle;resizable=0;points=[];autosize=1;strokeColor=none;fillColor=none;" vertex="1" parent="1">
          <mxGeometry x="300" y="410" width="50" height="30" as="geometry" />
        </mxCell>
      </root>
    </mxGraphModel>
  </diagram>
</mxfile>
